<svg data-name="Facebook logo" xmlns="http://www.w3.org/2000/svg" width="24" height="24"><path data-name="Контур 59" d="M24 12a12 12 0 01-10.125 11.854v-8.385h2.8L17.2 12h-3.325V9.749a1.734 1.734 0 011.956-1.874h1.513V4.922a18.458 18.458 0 00-2.686-.234c-2.741 0-4.532 1.661-4.532 4.669V12H7.078v3.469h3.047v8.385A12 12 0 1124 12z" fill="#c5c5c5"/><path data-name="Контур 60" d="M16.671 15.468l.532-3.469h-3.325V9.748a1.734 1.734 0 011.956-1.874h1.513V4.921a18.453 18.453 0 00-2.686-.234c-2.741 0-4.533 1.661-4.533 4.669V12h-3.05v3.469h3.047v8.385a12.127 12.127 0 003.75 0v-8.385z" fill="#3d3d3d"/></svg>