<svg xmlns="http://www.w3.org/2000/svg" width="65" height="60"><defs><linearGradient id="a" y1=".499" x2=".999" y2=".499" gradientUnits="objectBoundingBox"><stop offset="0" stop-color="#8dd04c"/><stop offset="1" stop-color="#4dbfe7"/></linearGradient></defs><g data-name="Сгруппировать 155" fill="#7cbf42"><path data-name="Контур 75" d="M.029 50.18c0-.438.2-.672.586-.672h2.079a.707.707 0 01.439.117 1.408 1.408 0 01.322.263 1.338 1.338 0 01.2.409 2.268 2.268 0 01.059.468 1.386 1.386 0 01-.176.7.787.787 0 01-.527.38.615.615 0 01.322.117.69.69 0 01.234.263 1.466 1.466 0 01.146.38 1.78 1.78 0 010 .906 1.166 1.166 0 01-.2.38.743.743 0 01-.381.263 1.421 1.421 0 01-.527.088H.644A.594.594 0 010 53.57v-3.39zm1.259.672v.614h1a.266.266 0 00.2-.088.315.315 0 00.059-.234.541.541 0 00-.059-.2.228.228 0 00-.2-.088zm0 1.578v.555h1a.228.228 0 00.2-.088.292.292 0 000-.351.228.228 0 00-.2-.088h-1z"/><path data-name="Контур 76" d="M8.14 52.255c0 1.4-.644 2.075-1.9 2.075-1.288 0-1.932-.7-1.932-2.075V50.18a.512.512 0 01.2-.468.666.666 0 01.468-.175.719.719 0 01.468.175.635.635 0 01.2.468v2.28c0 .38.2.585.615.585s.615-.2.615-.585v-2.28a.583.583 0 01.059-.263.524.524 0 01.146-.2.472.472 0 01.2-.117.907.907 0 01.234-.058.719.719 0 01.468.175.635.635 0 01.2.468v2.075z"/><path data-name="Контур 77" d="M9.984 53.629a.6.6 0 01-.2.5.666.666 0 01-.468.175.719.719 0 01-.468-.175.566.566 0 01-.2-.5V50.21c0-.438.2-.672.644-.672h2.225a.6.6 0 01.5.2.663.663 0 01.176.468.716.716 0 01-.176.468.656.656 0 01-.5.2H9.925v.468h1.288a.619.619 0 01.468.175.635.635 0 010 .877.619.619 0 01-.468.175H9.925v1.052z"/><path data-name="Контур 78" d="M13.879 53.629a.6.6 0 01-.2.5.666.666 0 01-.468.175.719.719 0 01-.468-.175.566.566 0 01-.2-.5V50.21c0-.438.2-.672.644-.672h2.225a.6.6 0 01.5.2.663.663 0 01.176.468.716.716 0 01-.176.468.656.656 0 01-.5.2H13.82v.468h1.288a.619.619 0 01.468.175.635.635 0 010 .877.619.619 0 01-.468.175H13.82v1.052z"/><path data-name="Контур 79" d="M18.651 53.366h-1.405l-.2.526a.588.588 0 01-.264.321.721.721 0 01-.322.117.856.856 0 01-.264-.058.877.877 0 01-.234-.117 1.271 1.271 0 01-.176-.2.852.852 0 01-.059-.263.583.583 0 01.059-.263l1.61-3.536a1.049 1.049 0 01.2-.292.53.53 0 01.41-.117.5.5 0 01.381.117.746.746 0 01.2.292l1.464 3.507a.583.583 0 01.059.263.852.852 0 01-.059.263.524.524 0 01-.146.2.589.589 0 01-.234.117.856.856 0 01-.264.058.567.567 0 01-.586-.438zm-1-1.023h.644l-.293-.848z"/><path data-name="Контур 80" d="M21.198 54.272c-.439 0-.644-.234-.644-.672v-3.478a.512.512 0 01.2-.468.666.666 0 01.468-.175.719.719 0 01.468.175.635.635 0 01.2.468v2.806h.644a.546.546 0 01.468.2.643.643 0 01.146.468.882.882 0 01-.146.468.637.637 0 01-.468.2h-1.336z"/><path data-name="Контур 81" d="M23.189 51.908a2.419 2.419 0 01.176-.935 1.977 1.977 0 01.524-.765 2.727 2.727 0 01.761-.526 2.54 2.54 0 01.937-.175 2.7 2.7 0 01.966.175 1.981 1.981 0 01.761.526 3.515 3.515 0 01.527.76 2.555 2.555 0 01.2.935 2.075 2.075 0 01-.2.935 1.977 1.977 0 01-.527.76 2.36 2.36 0 01-.761.526 2.583 2.583 0 01-.966.175 2.432 2.432 0 01-.937-.175 1.981 1.981 0 01-.761-.526 2.722 2.722 0 01-.527-.76 2.419 2.419 0 01-.173-.93zm1.318.029a1.171 1.171 0 00.088.438 1.076 1.076 0 00.586.585 1.072 1.072 0 00.439.088 1.177 1.177 0 00.439-.088 1.076 1.076 0 00.586-.585 1.138 1.138 0 000-.877 1.076 1.076 0 00-.586-.585 1.072 1.072 0 00-.439-.088 1.177 1.177 0 00-.439.088 1.076 1.076 0 00-.586.585.974.974 0 00-.088.436z"/><path data-name="Контур 82" d="M33.788 53.658a.6.6 0 01-.2.5.666.666 0 01-.468.175.719.719 0 01-.468-.175.654.654 0 01-.2-.5v-1.14h-1.083v1.14a.6.6 0 01-.2.5.666.666 0 01-.468.175.719.719 0 01-.468-.175.654.654 0 01-.2-.5v-3.507a.512.512 0 01.2-.468.666.666 0 01.468-.175.719.719 0 01.468.175.635.635 0 01.2.468v1.14h1.083v-1.14a.512.512 0 01.2-.468.666.666 0 01.468-.175.719.719 0 01.468.175.635.635 0 01.2.468z"/><path data-name="Контур 83" d="M34.257 51.908a2.419 2.419 0 01.176-.935 1.977 1.977 0 01.527-.76 2.727 2.727 0 01.761-.526 2.54 2.54 0 01.937-.175 2.7 2.7 0 01.966.175 1.98 1.98 0 01.761.526 3.515 3.515 0 01.527.76 2.555 2.555 0 01.2.935 2.075 2.075 0 01-.2.935 1.977 1.977 0 01-.527.76 2.36 2.36 0 01-.761.526 2.583 2.583 0 01-.966.175 2.432 2.432 0 01-.937-.175 1.981 1.981 0 01-.761-.526 2.722 2.722 0 01-.527-.76 2.419 2.419 0 01-.176-.935zm1.318.029a1.171 1.171 0 00.088.438 1.076 1.076 0 00.586.585 1.072 1.072 0 00.439.088 1.177 1.177 0 00.439-.088 1.076 1.076 0 00.586-.585 1.138 1.138 0 000-.877 1.076 1.076 0 00-.586-.585 1.072 1.072 0 00-.439-.088 1.177 1.177 0 00-.439.088 1.076 1.076 0 00-.586.585.975.975 0 00-.088.436z"/><path data-name="Контур 84" d="M41.87 52.518a.6.6 0 01-.468-.263l-.5-.643v2.046a.6.6 0 01-.2.5.646.646 0 01-.439.175.719.719 0 01-.468-.175.654.654 0 01-.2-.5v-3.449a.864.864 0 01.059-.292.614.614 0 01.381-.38.856.856 0 01.264-.058.78.78 0 01.351.088 1.146 1.146 0 01.293.234l.937 1.2.937-1.2a.553.553 0 01.293-.234.78.78 0 01.351-.088.856.856 0 01.264.058 1.028 1.028 0 01.234.146.636.636 0 01.146.234.863.863 0 01.059.292v3.449a.6.6 0 01-.2.5.666.666 0 01-.468.175.719.719 0 01-.468-.175.654.654 0 01-.2-.5v-2.046l-.468.643a.491.491 0 01-.234.2.316.316 0 01-.256.063z"/><path data-name="Контур 85" d="M45.353 54.272c-.439 0-.644-.234-.644-.672v-3.419c0-.438.2-.672.644-.672h2.225a.6.6 0 01.5.2.663.663 0 01.176.468.716.716 0 01-.176.468.656.656 0 01-.5.2h-1.581v.468h1.318a.553.553 0 01.439.175.546.546 0 01.146.409.633.633 0 01-.146.409.6.6 0 01-.439.175h-1.318v.468h1.581a.6.6 0 01.5.2.663.663 0 01.176.468.716.716 0 01-.176.468.656.656 0 01-.5.2h-2.225z"/><path data-name="Контур 86" d="M51.063 50.852a1.117 1.117 0 00-.468.088 1.053 1.053 0 00-.351.234.757.757 0 00-.2.321.862.862 0 00-.059.38 1.97 1.97 0 00.059.409 2.182 2.182 0 00.2.351.747.747 0 00.351.234 1.216 1.216 0 00.468.088h.5a.868.868 0 01.293.058.525.525 0 01.2.146.471.471 0 01.117.2.642.642 0 01.029.234.716.716 0 01-.176.468.568.568 0 01-.5.2h-.468a2.294 2.294 0 01-1.025-.2 2.355 2.355 0 01-.732-.526 1.99 1.99 0 01-.439-.76 2.9 2.9 0 01-.146-.877 3.056 3.056 0 01.146-.877 1.85 1.85 0 01.468-.76 2.436 2.436 0 01.761-.555 2.473 2.473 0 011.083-.2h.381a.868.868 0 01.293.058.525.525 0 01.2.146.731.731 0 01.117.2.9.9 0 01.059.234 1.083 1.083 0 01-.059.263.471.471 0 01-.117.2.525.525 0 01-.2.146.868.868 0 01-.293.058h-.5z"/><path data-name="Контур 87" d="M55.426 53.366h-1.405l-.2.526a.588.588 0 01-.264.321.721.721 0 01-.322.117.856.856 0 01-.263-.058.877.877 0 01-.234-.117 1.271 1.271 0 01-.176-.2.853.853 0 01-.059-.263.583.583 0 01.059-.263l1.61-3.536a1.05 1.05 0 01.2-.292.53.53 0 01.41-.117.5.5 0 01.381.117 1.049 1.049 0 01.2.292l1.464 3.507a.583.583 0 01.059.263.852.852 0 01-.059.263.524.524 0 01-.146.2.589.589 0 01-.234.117.856.856 0 01-.263.058.567.567 0 01-.586-.438zm-1-1.023h.644l-.293-.848z"/><path data-name="Контур 88" d="M58.881 52.489a.223.223 0 01-.059-.146.5.5 0 01-.029-.2.74.74 0 01.117-.468.435.435 0 01.381-.175h.088a.358.358 0 00.264-.088.436.436 0 00.088-.292.357.357 0 00-.088-.263.472.472 0 00-.322-.088h-.7v2.835c0 .438-.2.672-.644.672a.6.6 0 01-.673-.672v-3.419c0-.438.2-.672.644-.672h1.435a1.832 1.832 0 01.732.117 1.626 1.626 0 01.5.321 1.569 1.569 0 01.293.468 1.652 1.652 0 01.088.526 1.424 1.424 0 01-.234.818 1.2 1.2 0 01-.556.468l.644.994a.8.8 0 01.117.409.852.852 0 01-.059.263.393.393 0 01-.176.2 1.634 1.634 0 01-.234.146.856.856 0 01-.264.058.668.668 0 01-.322-.088.691.691 0 01-.234-.263z"/><path data-name="Контур 89" d="M62.101 54.272c-.439 0-.644-.234-.644-.672v-3.419c0-.438.2-.672.644-.672h2.225a.6.6 0 01.5.2.663.663 0 01.176.468.716.716 0 01-.176.468.656.656 0 01-.5.2h-1.581v.468h1.318a.553.553 0 01.439.175.546.546 0 01.146.409.633.633 0 01-.146.409.6.6 0 01-.439.175h-1.318v.468h1.581a.6.6 0 01.5.2.663.663 0 01.176.468.716.716 0 01-.176.468.656.656 0 01-.5.2h-2.225z"/></g><g data-name="Сгруппировать 156" fill="#7cbf42"><path data-name="Контур 90" d="M30.217 57.223a.375.375 0 00-.117-.292.473.473 0 00-.264-.088.5.5 0 00-.293.088.308.308 0 00-.117.292v2.4a.308.308 0 00.117.292.533.533 0 00.586 0 .308.308 0 00.117-.292v-2.4z"/><path data-name="Контур 91" d="M31.3 58.392l.937 1.4c.059.058.088.117.176.146a.425.425 0 00.322.029c.029-.029.088-.029.117-.088.029-.029.059-.088.088-.117a.37.37 0 00.029-.175v-2.426a.285.285 0 00-.117-.263.409.409 0 00-.264-.088.358.358 0 00-.264.088.37.37 0 00-.117.263v1.257l-.937-1.4c-.059-.058-.088-.117-.176-.146a.425.425 0 00-.322-.029c-.029.029-.088.029-.117.088-.029.029-.059.088-.088.117a.37.37 0 00-.029.175v2.426a.285.285 0 00.117.263.409.409 0 00.264.088.358.358 0 00.264-.088.37.37 0 00.117-.263z"/><path data-name="Контур 92" d="M35.516 59.444c-.029-.058-.029-.088-.059-.117a.4.4 0 00-.117-.088.372.372 0 00-.176-.029h-.322a1.094 1.094 0 01-.351-.058l-.264-.175a.565.565 0 01-.146-.263.759.759 0 010-.585 1.184 1.184 0 01.146-.263 1.022 1.022 0 01.264-.175 1.093 1.093 0 01.351-.058h.322a.372.372 0 00.176-.029.4.4 0 00.117-.088c.029-.029.059-.088.088-.117a.379.379 0 000-.292c-.029-.058-.029-.088-.088-.117-.029-.029-.088-.058-.117-.088a.372.372 0 00-.176-.029H34.9a1.921 1.921 0 00-.732.146 1.272 1.272 0 00-.5.351 1.241 1.241 0 00-.293.5 1.989 1.989 0 000 1.169 1.711 1.711 0 00.293.5 1.272 1.272 0 00.5.351 1.72 1.72 0 00.673.117h.322a.309.309 0 00.293-.117.493.493 0 00.088-.292.263.263 0 00-.028-.154z"/></g><path data-name="Контур 93" d="M54.114 2.244a18.359 18.359 0 0118.241 18.471A18.58 18.58 0 0166.47 34.3a18.224 18.224 0 001.113-15.022s-7.5 2.221-10.716 12.509a26.408 26.408 0 00-.176 14.35C69.515 45 79.529 35.328 79.529 23.579 79.529 11.041 68.168.9 54.144.9S28.7 11.012 28.7 23.55c0 11.749 10.014 21.422 22.838 22.562a26.408 26.408 0 00-.176-14.35c-3.25-10.287-10.745-12.509-10.745-12.509a18.224 18.224 0 001.113 15.022 18.643 18.643 0 01-5.885-13.59A18.4 18.4 0 0154.114 2.244zm12.034 11.544L55.315 7.826a2.43 2.43 0 00-2.284 0l-4.919 2.689V8.908a1.362 1.362 0 00-2.723-.029v3.156L42.2 13.788a1.391 1.391 0 00-.556 1.87 1.355 1.355 0 001.845.555h.029L54.2 10.34l10.687 5.874a1.256 1.256 0 00.644.175 1.383 1.383 0 001.2-.731 1.42 1.42 0 00-.586-1.87zm-13.38 3.478h-1.7a.45.45 0 01-.439-.438v-1.7a.45.45 0 01.439-.438h1.7a.45.45 0 01.439.438v1.7a.431.431 0 01-.439.438zm4.333 0h-1.669a.45.45 0 01-.439-.438v-1.7a.45.45 0 01.439-.438h1.7a.45.45 0 01.439.438v1.7a.456.456 0 01-.471.438zm-4.333 4.384h-1.7a.45.45 0 01-.439-.438v-1.7a.45.45 0 01.439-.438h1.7a.45.45 0 01.439.438v1.7a.431.431 0 01-.439.438zm4.333 0h-1.669a.45.45 0 01-.439-.438v-1.7a.45.45 0 01.439-.438h1.7a.45.45 0 01.439.438v1.7a.456.456 0 01-.471.438z" transform="translate(-21.761 -.9)" fill-rule="evenodd" fill="url(#a)"/></svg>