<svg xmlns="http://www.w3.org/2000/svg" width="100" height="89.032"><defs><linearGradient id="b" y1=".524" x2="1" y2=".524" gradientUnits="objectBoundingBox"><stop offset="0" stop-color="#8dd04c"/><stop offset="1" stop-color="#4cbee9"/></linearGradient><clipPath id="a"><path d="M50 2.72a36.431 36.431 0 0124.331 63.055s8.312-13.529 2.188-29.581c0 0-14.738 4.365-21.1 24.614a51.97 51.97 0 00-.353 28.218C80.3 86.756 100 67.742 100 44.622 100 19.974 77.614-.007 50-.007S0 19.974 0 44.622c0 23.12 19.7 42.134 44.93 44.4a51.945 51.945 0 00-.353-28.217c-6.358-20.249-21.1-24.614-21.1-24.614-6.123 16.052 2.188 29.581 2.188 29.581A36.431 36.431 0 0150 2.72zM73.712 25.4L52.359 13.668a4.894 4.894 0 00-4.483 0l-9.691 5.325v-3.156a2.688 2.688 0 00-5.375 0v6.109L26.523 25.4a2.731 2.731 0 00-1.078 3.683 2.673 2.673 0 003.644 1.089l21.029-11.553 21.027 11.554a2.67 2.67 0 003.645-1.089 2.731 2.731 0 00-1.077-3.684zm-26.321 6.88h-3.325a.861.861 0 01-.854-.864v-3.359a.861.861 0 01.854-.864h3.324a.861.861 0 01.854.864v3.359a.861.861 0 01-.853.864zm8.543 0h-3.325a.861.861 0 01-.854-.864v-3.359a.861.861 0 01.854-.864h3.324a.861.861 0 01.854.864v3.359a.861.861 0 01-.853.864zm-8.543 8.634h-3.325a.861.861 0 01-.854-.863v-3.36a.861.861 0 01.854-.863h3.324a.861.861 0 01.854.863v3.359a.861.861 0 01-.854.863zm8.543 0h-3.325a.861.861 0 01-.854-.863v-3.36a.861.861 0 01.854-.863h3.324a.861.861 0 01.854.863v3.359a.861.861 0 01-.854.863z" transform="translate(345 3003.007)" fill="#30a1b0" clip-rule="evenodd"/></clipPath></defs><g transform="translate(-345 -3003)" clip-path="url(#a)"><path data-name="buffalo" d="M50 2.72a36.431 36.431 0 0124.33 63.054s8.312-13.529 2.188-29.581c0 0-14.738 4.365-21.1 24.614a51.97 51.97 0 00-.353 28.218C80.3 86.755 100 67.741 100 44.622 100 19.974 77.613-.007 50-.007S0 19.974 0 44.622c0 23.12 19.7 42.134 44.93 44.4a51.945 51.945 0 00-.353-28.222c-6.358-20.249-21.1-24.614-21.1-24.614-6.123 16.052 2.188 29.581 2.188 29.581A36.431 36.431 0 0150 2.72zM73.711 25.4L52.359 13.668a4.894 4.894 0 00-4.483 0l-9.691 5.325v-3.156a2.688 2.688 0 10-5.375 0v6.109L26.523 25.4a2.731 2.731 0 00-1.078 3.683 2.673 2.673 0 003.644 1.089l21.029-11.553 21.026 11.554a2.67 2.67 0 003.645-1.089 2.731 2.731 0 00-1.077-3.684zm-26.32 6.88h-3.325a.861.861 0 01-.854-.864v-3.359a.861.861 0 01.854-.864h3.324a.861.861 0 01.854.864v3.359a.861.861 0 01-.853.864zm8.543 0h-3.325a.861.861 0 01-.854-.864v-3.359a.861.861 0 01.854-.864h3.324a.861.861 0 01.854.864v3.359a.861.861 0 01-.853.864zm-8.543 8.634h-3.325a.861.861 0 01-.854-.863v-3.36a.861.861 0 01.854-.863h3.324a.861.861 0 01.854.863v3.359a.861.861 0 01-.854.863zm8.543 0h-3.325a.861.861 0 01-.854-.863v-3.36a.861.861 0 01.854-.863h3.324a.861.861 0 01.854.863v3.359a.861.861 0 01-.854.863z" transform="translate(345 3003.007)" fill="url(#b)"/></g></svg>