<svg xmlns="http://www.w3.org/2000/svg" xmlns:xlink="http://www.w3.org/1999/xlink" width="50" height="50" viewBox="0 0 50 50">
  <defs>
    <clipPath id="clip-path">
      <rect id="Прямоугольник_368" data-name="Прямоугольник 368" width="50" height="50" transform="translate(-486.701 -20.1)" fill="#fff" opacity="0"/>
    </clipPath>
  </defs>
  <g id="icon_We_re_local" data-name="icon_We’re local" transform="translate(486.701 20.1)">
    <g id="Группа_масок_28" data-name="Группа масок 28" clip-path="url(#clip-path)">
      <g id="Search_results_for_Call_phone_-_Flaticon-12" data-name="Search results for Call phone - Flaticon-12" transform="translate(-486.701 -20.1)">
        <path id="Контур_67" data-name="Контур 67" d="M39.648,3.027H27.93a10.254,10.254,0,0,0-1.465,20.4v4.5a1.465,1.465,0,0,0,2.5,1.036l5.43-5.43h5.253A10.35,10.35,0,0,0,50,13.281,10.35,10.35,0,0,0,39.648,3.027ZM27.93,14.746a1.465,1.465,0,1,1,1.465-1.465A1.465,1.465,0,0,1,27.93,14.746Zm5.859,0a1.465,1.465,0,1,1,1.465-1.465A1.465,1.465,0,0,1,33.789,14.746Zm5.859,0a1.465,1.465,0,1,1,1.465-1.465A1.465,1.465,0,0,1,39.648,14.746Z" fill="#5ab800"/>
        <path id="Контур_68" data-name="Контур 68" d="M32.91,46.973A4.4,4.4,0,0,0,37.3,42.578V36.719a1.463,1.463,0,0,0-1-1.389L27.535,32.4a1.467,1.467,0,0,0-1.276.17l-3.728,2.485A25.783,25.783,0,0,1,12.015,24.539L14.5,20.811a1.466,1.466,0,0,0,.17-1.276l-2.93-8.768a1.463,1.463,0,0,0-1.389-1H4.395A4.382,4.382,0,0,0,0,14.14C0,31.017,16.033,46.973,32.91,46.973Z" fill="#009bc9"/>
      </g>
    </g>
  </g>
</svg>
