<svg xmlns="http://www.w3.org/2000/svg" xmlns:xlink="http://www.w3.org/1999/xlink" width="50" height="50" viewBox="0 0 50 50">
  <defs>
    <clipPath id="clip-path">
      <rect id="Прямоугольник_368" data-name="Прямоугольник 368" width="50" height="50" transform="translate(-486.701 -20.1)" fill="#fff" opacity="0"/>
    </clipPath>
  </defs>
  <g id="icon_Bonus_Program" data-name="icon_Bonus Program" transform="translate(486.701 20.1)">
    <g id="Группа_масок_27" data-name="Группа масок 27" clip-path="url(#clip-path)">
      <path id="Контур_66" data-name="Контур 66" d="M37.921,17.854H19.21c-3.821,4.624-10.284,13.8-10.284,23.21,0,8.159,6.213,12.5,10.712,12.5H37.492c4.5,0,10.712-4.338,10.712-12.5C48.2,31.654,41.742,22.478,37.921,17.854Zm-7.57,24.995v1.785a1.785,1.785,0,0,1-3.571,0V42.849a5.356,5.356,0,0,1-4.624-2.678,1.785,1.785,0,1,1,3.071-1.785,1.785,1.785,0,0,0,1.553.893h3.571a1.785,1.785,0,1,0,0-3.571H26.78a5.356,5.356,0,0,1,0-10.712V23.21a1.785,1.785,0,1,1,3.571,0v1.785a5.356,5.356,0,0,1,4.624,2.678A1.785,1.785,0,1,1,31.9,29.458a1.785,1.785,0,0,0-1.553-.893H26.78a1.785,1.785,0,0,0,0,3.571h3.571a5.356,5.356,0,1,1,0,10.712Z" transform="translate(-490.267 -23.661)" fill="#009bc9"/>
      <path id="Контур_66-2" data-name="Контур 66" d="M20.317,14.283h16.5l4.053-8.123a1.789,1.789,0,0,0-2.839-2.089,6.124,6.124,0,0,1-4.106,1.285,6.142,6.142,0,0,1-4.088-1.268,1.785,1.785,0,0,0-2.517,0A6.124,6.124,0,0,1,23.21,5.356a6.142,6.142,0,0,1-4.088-1.268,1.785,1.785,0,0,0-2.857,2.071Zm-.678,39.278h0Z" transform="translate(-490.267 -23.661)" fill="#5ab800"/>
    </g>
  </g>
</svg>
