<svg xmlns="http://www.w3.org/2000/svg" xmlns:xlink="http://www.w3.org/1999/xlink" width="100" height="89.032" viewBox="0 0 100 89.032">
  <defs>
    <clipPath id="clip-path">
      <path id="buffalo" d="M50,2.72A36.431,36.431,0,0,1,74.331,65.775s8.312-13.529,2.188-29.581c0,0-14.738,4.365-21.1,24.614a51.97,51.97,0,0,0-.353,28.218C80.3,86.756,100,67.742,100,44.622,100,19.974,77.614-.007,50-.007S0,19.974,0,44.622c0,23.12,19.7,42.134,44.93,44.4a51.945,51.945,0,0,0-.353-28.217c-6.358-20.249-21.1-24.614-21.1-24.614-6.123,16.052,2.188,29.581,2.188,29.581A36.431,36.431,0,0,1,50,2.72ZM73.712,25.4,52.359,13.668a4.894,4.894,0,0,0-4.483,0l-9.691,5.325V15.837a2.688,2.688,0,0,0-5.375,0v6.109L26.523,25.4a2.731,2.731,0,0,0-1.078,3.683,2.673,2.673,0,0,0,3.644,1.089L50.118,18.619,71.145,30.173a2.67,2.67,0,0,0,3.645-1.089A2.731,2.731,0,0,0,73.713,25.4ZM47.391,32.28H44.066a.861.861,0,0,1-.854-.864V28.057a.861.861,0,0,1,.854-.864h3.324a.861.861,0,0,1,.854.864v3.359A.861.861,0,0,1,47.391,32.28Zm8.543,0H52.609a.861.861,0,0,1-.854-.864V28.057a.861.861,0,0,1,.854-.864h3.324a.861.861,0,0,1,.854.864v3.359A.861.861,0,0,1,55.934,32.28Zm-8.543,8.634H44.066a.861.861,0,0,1-.854-.863V36.691a.861.861,0,0,1,.854-.863h3.324a.861.861,0,0,1,.854.863V40.05a.861.861,0,0,1-.854.863Zm8.543,0H52.609a.861.861,0,0,1-.854-.863V36.691a.861.861,0,0,1,.854-.863h3.324a.861.861,0,0,1,.854.863V40.05a.861.861,0,0,1-.854.863Z" transform="translate(345 3003.007)" fill="#30a1b0" clip-rule="evenodd"/>
    </clipPath>
    <linearGradient id="linear-gradient" y1="0.524" x2="1" y2="0.524" gradientUnits="objectBoundingBox">
      <stop offset="0" stop-color="#8dd04c"/>
      <stop offset="1" stop-color="#4cbee9"/>
    </linearGradient>
  </defs>
  <g id="logo" transform="translate(-345 -3003)" clip-path="url(#clip-path)">
    <path id="buffalo-2" data-name="buffalo" d="M50,2.72A36.431,36.431,0,0,1,74.33,65.774s8.312-13.529,2.188-29.581c0,0-14.738,4.365-21.1,24.614a51.97,51.97,0,0,0-.353,28.218C80.3,86.755,100,67.741,100,44.622,100,19.974,77.613-.007,50-.007S0,19.974,0,44.622c0,23.12,19.7,42.134,44.93,44.4A51.945,51.945,0,0,0,44.577,60.8c-6.358-20.249-21.1-24.614-21.1-24.614-6.123,16.052,2.188,29.581,2.188,29.581A36.431,36.431,0,0,1,50,2.72ZM73.711,25.4,52.359,13.668a4.894,4.894,0,0,0-4.483,0l-9.691,5.325V15.837a2.688,2.688,0,1,0-5.375,0v6.109L26.523,25.4a2.731,2.731,0,0,0-1.078,3.683,2.673,2.673,0,0,0,3.644,1.089L50.118,18.619,71.144,30.173a2.67,2.67,0,0,0,3.645-1.089A2.731,2.731,0,0,0,73.712,25.4ZM47.391,32.28H44.066a.861.861,0,0,1-.854-.864V28.057a.861.861,0,0,1,.854-.864H47.39a.861.861,0,0,1,.854.864v3.359A.861.861,0,0,1,47.391,32.28Zm8.543,0H52.609a.861.861,0,0,1-.854-.864V28.057a.861.861,0,0,1,.854-.864h3.324a.861.861,0,0,1,.854.864v3.359a.861.861,0,0,1-.853.864Zm-8.543,8.634H44.066a.861.861,0,0,1-.854-.863v-3.36a.861.861,0,0,1,.854-.863H47.39a.861.861,0,0,1,.854.863V40.05a.861.861,0,0,1-.854.863Zm8.543,0H52.609a.861.861,0,0,1-.854-.863v-3.36a.861.861,0,0,1,.854-.863h3.324a.861.861,0,0,1,.854.863V40.05a.861.861,0,0,1-.854.863Z" transform="translate(345 3003.007)" fill="url(#linear-gradient)"/>
  </g>
</svg>
