<svg xmlns="http://www.w3.org/2000/svg" xmlns:xlink="http://www.w3.org/1999/xlink" width="50" height="50" viewBox="0 0 50 50">
  <defs>
    <clipPath id="clip-path">
      <rect id="Прямоугольник_368" data-name="Прямоугольник 368" width="50" height="50" transform="translate(-486.701 -20.1)" fill="#fff" opacity="0"/>
    </clipPath>
  </defs>
  <g id="icon_Instant_Pay_Option" data-name="icon_Instant Pay Option" transform="translate(486.701 20.1)">
    <g id="Группа_масок_26" data-name="Группа масок 26" clip-path="url(#clip-path)">
      <g id="Search_results_for_Money_-_Flaticon-12_2_" data-name="Search results for Money - Flaticon-12 (2)" transform="translate(-486.701 -20.1)">
        <path id="Контур_64" data-name="Контур 64" d="M20.459,36.364A15.875,15.875,0,0,1,41.613,21.358a1.148,1.148,0,0,0,.375.063c.018,0,.033,0,.044,0a1.136,1.136,0,0,0,1.137-1.136,1.163,1.163,0,0,0-.069-.4A21.583,21.583,0,1,0,20.217,43.114a1.135,1.135,0,0,0,1.143-1.508A15.913,15.913,0,0,1,20.459,36.364Zm-4.883-7.151a1.136,1.136,0,0,1-1.607-1.607l6.485-6.485V7.955a1.136,1.136,0,0,1,2.273,0V21.591a1.136,1.136,0,0,1-.333.8l-6.818,6.818Z" fill="#009bc9"/>
        <path id="Контур_65" data-name="Контур 65" d="M36.364,22.727A13.636,13.636,0,1,0,50,36.364,13.651,13.651,0,0,0,36.364,22.727Zm-.568,12.5h1.136a3.968,3.968,0,0,1,.568,7.9v1.194a1.136,1.136,0,1,1-2.273,0V43.182H32.955a1.136,1.136,0,1,1,0-2.273h3.977a1.7,1.7,0,1,0,0-3.409H35.8a3.968,3.968,0,0,1-.568-7.9V28.409a1.136,1.136,0,1,1,2.273,0v1.136h2.273a1.136,1.136,0,1,1,0,2.273H35.8a1.7,1.7,0,1,0,0,3.409Z" fill="#5ab800"/>
      </g>
    </g>
  </g>
</svg>
