<svg xmlns="http://www.w3.org/2000/svg" xmlns:xlink="http://www.w3.org/1999/xlink" width="50" height="50" viewBox="0 0 50 50">
  <defs>
    <clipPath id="clip-path">
      <rect id="Прямоугольник_368" data-name="Прямоугольник 368" width="50" height="50" transform="translate(-486.701 -20.1)" fill="#fff" opacity="0"/>
    </clipPath>
  </defs>
  <g id="icon_Making_" data-name="icon_Making " transform="translate(486.701 20.1)">
    <g id="Группа_масок_29" data-name="Группа масок 29" clip-path="url(#clip-path)">
      <g id="Search_results_for_Paperwork_-_Flaticon-12" data-name="Search results for Paperwork - Flaticon-12" transform="translate(-487.476 -20.881)">
        <path id="Контур_69" data-name="Контур 69" d="M28.984,50.313l7.969-7.891H28.984ZM7.969,10.938h5.625v7.969H7.969Z" fill="#009bc9"/>
        <path id="Контур_70" data-name="Контур 70" d="M28.828,19.375H17.5a.781.781,0,0,1,0-1.562H27.734a11.789,11.789,0,0,1-1.562-4.844H17.5a.781.781,0,0,1,0-1.562h8.672a12.623,12.623,0,0,1,2.344-7.031H5.078A3.134,3.134,0,0,0,1.953,7.5V46.719C1.8,49.531,3.2,50.781,5.078,50.781H27.422V41.641a.738.738,0,0,1,.781-.781h9.219V24.141a12.42,12.42,0,0,1-8.594-4.766ZM6.406,10.156a.783.783,0,0,1,.781-.781h7.188a.84.84,0,0,1,.781.781v9.531a.783.783,0,0,1-.781.781H7.188a.738.738,0,0,1-.781-.781ZM22.969,45.078H7.188a.781.781,0,0,1,0-1.562H22.969a.781.781,0,1,1,0,1.563Zm8.125-6.406H7.188a.783.783,0,0,1-.781-.781.738.738,0,0,1,.781-.781H31.094a.781.781,0,0,1,0,1.563Zm0-6.406H7.188a.781.781,0,0,1,0-1.562H31.094a.781.781,0,0,1,0,1.563ZM31.875,25a.84.84,0,0,1-.781.781H7.188a.781.781,0,0,1,0-1.562H31.094a.837.837,0,0,1,.781.781Z" fill="#009bc9"/>
        <path id="Контур_71" data-name="Контур 71" d="M38.672.781A10.938,10.938,0,1,0,49.609,11.719,10.991,10.991,0,0,0,38.672.781ZM44.3,8.75l-7.656,7.656a.755.755,0,0,1-1.094,0l-2.5-2.5a.773.773,0,0,1,1.094-1.094l1.953,1.953L43.2,7.656A.773.773,0,0,1,44.3,8.75Z" fill="#5ab800"/>
      </g>
    </g>
  </g>
</svg>
